<?xml version="1.0" encoding="UTF-8"?>
<svg version="1.1" xmlns="http://www.w3.org/2000/svg" width="360" height="210">
<path d="M0 0 C118.8 0 237.6 0 360 0 C360 69.3 360 138.6 360 210 C241.2 210 122.4 210 0 210 C0 140.7 0 71.4 0 0 Z " fill="#F7F7F7" transform="translate(0,0)"/>
<path d="M0 0 C5.22608053 3.03069834 9.0384559 7.46151743 10.625 13.375 C10.70146165 15.7070802 10.71643299 18.04345878 10.625 20.375 C11.7078125 20.49875 11.7078125 20.49875 12.8125 20.625 C17.45810434 21.86382782 20.00092538 24.43888807 22.625 28.375 C23.28815196 33.35635074 23.40568389 37.87608693 21.0625 42.375 C14.22365573 47.9863594 7.69645176 47.7594431 -0.8125 47.5625 C-1.92560547 47.54896484 -3.03871094 47.53542969 -4.18554688 47.52148438 C-6.91557496 47.4863338 -9.64535189 47.43253357 -12.375 47.375 C-12.375 42.755 -12.375 38.135 -12.375 33.375 C-9.9 32.88 -9.9 32.88 -7.375 32.375 C-10.015 29.735 -12.655 27.095 -15.375 24.375 C-18.7822219 26.07861095 -20.85535706 27.50732136 -23.625 30 C-24.33140625 30.63164063 -25.0378125 31.26328125 -25.765625 31.9140625 C-26.29671875 32.39617187 -26.8278125 32.87828125 -27.375 33.375 C-24.405 33.87 -24.405 33.87 -21.375 34.375 C-21.375 38.665 -21.375 42.955 -21.375 47.375 C-25.58372148 47.45605241 -29.7908763 47.51553316 -34 47.5625 C-35.18980469 47.58763672 -36.37960938 47.61277344 -37.60546875 47.63867188 C-45.51521015 47.70495462 -50.29686976 47.25238262 -56.25 41.6875 C-58.83861803 37.65230131 -59.37238254 35.03566609 -58.375 30.375 C-55.96564944 25.55629888 -53.06929982 22.97184671 -48.375 20.375 C-47.385 20.375 -46.395 20.375 -45.375 20.375 C-45.2821875 19.0446875 -45.2821875 19.0446875 -45.1875 17.6875 C-44.15599756 13.48214389 -42.80513479 11.98488516 -39.375 9.375 C-35.28314296 8.36998248 -32.38154973 8.23528126 -28.375 9.375 C-27.93929687 8.83230469 -27.50359375 8.28960937 -27.0546875 7.73046875 C-19.81388881 -0.96789331 -11.0608999 -5.0067331 0 0 Z " fill="#BEC4D5" transform="translate(199.375,52.625)"/>
<path d="M0 0 C1.32 0 2.64 0 4 0 C4 0.99 4 1.98 4 3 C4.70125 2.505 5.4025 2.01 6.125 1.5 C9.53516525 -0.27921665 11.20553658 -0.61950423 15 0 C17.92152702 1.8344472 20.4326609 3.86532181 22 7 C22.34708476 12.29304255 22.51351894 15.73358414 19 20 C15.58542621 22.56093034 12.14438649 22.30140993 8 22 C7.01 21.34 6.02 20.68 5 20 C4.67 23.96 4.34 27.92 4 32 C2.68 32 1.36 32 0 32 C0 21.44 0 10.88 0 0 Z " fill="#878787" transform="translate(137,123)"/>
<path d="M0 0 C1.32 0 2.64 0 4 0 C4 9.57 4 19.14 4 29 C2.68 29 1.36 29 0 29 C-0.33 28.34 -0.66 27.68 -1 27 C-1.99 27.66 -2.98 28.32 -4 29 C-11.73827534 29.56278366 -11.73827534 29.56278366 -15 27 C-18.03849998 22.70418968 -18.49004539 19.18866165 -17.703125 14.125 C-16.42354261 10.25781767 -14.49928559 9.04675195 -11 7 C-6.58667461 6.38213445 -5.08223009 6.95888496 -1 9 C-0.67 6.03 -0.34 3.06 0 0 Z " fill="#858585" transform="translate(241,116)"/>
<path d="M0 0 C2.375 1.5 2.375 1.5 4 3 C4.33 2.01 4.66 1.02 5 0 C6.32 0 7.64 0 9 0 C9 7.26 9 14.52 9 22 C7.68 22 6.36 22 5 22 C4.67 21.34 4.34 20.68 4 20 C3.484375 20.33 2.96875 20.66 2.4375 21 C-0.96121795 22.39434583 -3.35594448 22.44751559 -7 22 C-9.875 19.5625 -9.875 19.5625 -12 17 C-12.33 16.67 -12.66 16.34 -13 16 C-13.55720584 12.21896039 -13.84003776 8.52021759 -11.953125 5.10546875 C-8.19772963 0.56585846 -5.80454973 -0.46436398 0 0 Z " fill="#868686" transform="translate(210,123)"/>
<path d="M0 0 C5.53846154 3.07692308 5.53846154 3.07692308 7 6 C7.52778794 10.88852762 7.73000486 14.7665435 5.1875 19.0625 C2.31577936 21.60602399 0.43494864 21.96778158 -3.375 22.25 C-7.28283586 21.98049408 -9.00518005 21.48142225 -12 19 C-14.28762174 15.07836273 -14.548897 11.46958988 -14 7 C-10.36087891 0.95283597 -6.94351429 -0.57862619 0 0 Z " fill="#848484" transform="translate(186,123)"/>
<path d="M0 0 C1.32 0 2.64 0 4 0 C4.01981934 0.62567871 4.03963867 1.25135742 4.06005859 1.89599609 C4.15514226 4.72276519 4.26488746 7.54877815 4.375 10.375 C4.4059375 11.35984375 4.436875 12.3446875 4.46875 13.359375 C4.50742188 14.30039063 4.54609375 15.24140625 4.5859375 16.2109375 C4.6173584 17.08024902 4.6487793 17.94956055 4.68115234 18.84521484 C4.81229433 21.20961794 4.81229433 21.20961794 7 23 C11.08921139 23.48825827 11.08921139 23.48825827 14.65942383 21.7722168 C16.36575604 19.51647731 16.42222112 18.14225676 16.51171875 15.33203125 C16.54716797 14.43935547 16.58261719 13.54667969 16.61914062 12.62695312 C16.64169922 11.69818359 16.66425781 10.76941406 16.6875 9.8125 C16.72166016 8.87212891 16.75582031 7.93175781 16.79101562 6.96289062 C16.87348218 4.64204607 16.94263403 2.32157852 17 0 C17.99 0 18.98 0 20 0 C20.11627503 3.58305992 20.1872736 7.16563417 20.25 10.75 C20.30027344 12.27367187 20.30027344 12.27367187 20.3515625 13.828125 C20.45080252 21.37036672 20.45080252 21.37036672 18.109375 24.640625 C14.14230271 27.1971827 10.66709462 27.66161878 6 27 C2.55687286 24.8755173 1.28382453 23.85147359 0 20 C-0.08106686 18.44578271 -0.10756898 16.88832973 -0.09765625 15.33203125 C-0.09443359 14.43935547 -0.09121094 13.54667969 -0.08789062 12.62695312 C-0.07951172 11.69818359 -0.07113281 10.76941406 -0.0625 9.8125 C-0.05798828 8.87212891 -0.05347656 7.93175781 -0.04882812 6.96289062 C-0.03704626 4.64186288 -0.02059558 2.32096356 0 0 Z " fill="#838383" transform="translate(111,118)"/>
<path d="M0 0 C3.37223771 0.7782087 4.4947794 1.68439541 6.4375 4.5625 C7.26250224 8.62917773 7.08883288 11.56044942 4.8125 15.0625 C1.69423949 17.03192769 0.06029473 17.24177401 -3.5625 16.5625 C-6.42062053 14.00523427 -7.41817742 12.33222041 -8.125 8.5625 C-7.24128756 3.84936699 -4.74176112 1.04087439 0 0 Z " fill="#F4F4F4" transform="translate(234.5625,125.4375)"/>
<path d="M0 0 C3.4375 1 3.4375 1 5.375 2.6875 C6.78339562 5.75283164 6.91522045 7.65595685 6.4375 11 C4.8125 13.875 4.8125 13.875 2.4375 16 C-1.18529473 16.67927401 -2.81923949 16.46942769 -5.9375 14.5 C-8.22012005 10.98827684 -8.37103347 8.07600894 -7.5625 4 C-5.32424706 0.32926518 -4.31620847 0 0 0 Z " fill="#F4F4F4" transform="translate(208.5625,126)"/>
<path d="M0 0 C3.4375 1 3.4375 1 5.375 2.6875 C6.7988395 5.7864448 6.98903827 7.62182812 6.4375 11 C4.375 13.9375 4.375 13.9375 1.4375 16 C-2.25 16 -2.25 16 -5.5625 15 C-8.02246614 11.3100508 -8.24199564 8.28340287 -7.5625 4 C-5.32424706 0.32926518 -4.31620847 0 0 0 Z " fill="#F4F4F4" transform="translate(183.5625,126)"/>
<path d="M0 0 C4.45144991 1.5483304 4.45144991 1.5483304 5.875 4 C6.63412409 10.83211679 6.63412409 10.83211679 4.25 14.5 C1.13173949 16.46942769 -0.50220527 16.67927401 -4.125 16 C-6.98312053 13.44273427 -7.98067742 11.76972041 -8.6875 8 C-7.74211583 2.95795108 -5.27229709 0 0 0 Z " fill="#F4F4F4" transform="translate(149.125,126)"/>
<path d="M0 0 C0.99 0 1.98 0 3 0 C3 9.57 3 19.14 3 29 C2.01 29 1.02 29 0 29 C0 19.43 0 9.86 0 0 Z " fill="#7B7B7B" transform="translate(164,116)"/>
<path d="M0 0 C1.98 0 3.96 0 6 0 C6 0.99 6 1.98 6 3 C4.02 3 2.04 3 0 3 C0 2.01 0 1.02 0 0 Z " fill="#C6C6C6" transform="translate(345,207)"/>
<path d="M0 0 C1.98 0 3.96 0 6 0 C6 0.99 6 1.98 6 3 C4.02 3 2.04 3 0 3 C0 2.01 0 1.02 0 0 Z " fill="#C6C6C6" transform="translate(333,207)"/>
<path d="M0 0 C1.98 0 3.96 0 6 0 C6 0.99 6 1.98 6 3 C4.02 3 2.04 3 0 3 C0 2.01 0 1.02 0 0 Z " fill="#C6C6C6" transform="translate(321,207)"/>
<path d="M0 0 C1.98 0 3.96 0 6 0 C6 0.99 6 1.98 6 3 C4.02 3 2.04 3 0 3 C0 2.01 0 1.02 0 0 Z " fill="#C6C6C6" transform="translate(309,207)"/>
<path d="M0 0 C1.98 0 3.96 0 6 0 C6 0.99 6 1.98 6 3 C4.02 3 2.04 3 0 3 C0 2.01 0 1.02 0 0 Z " fill="#C6C6C6" transform="translate(297,207)"/>
<path d="M0 0 C1.98 0 3.96 0 6 0 C6 0.99 6 1.98 6 3 C4.02 3 2.04 3 0 3 C0 2.01 0 1.02 0 0 Z " fill="#C6C6C6" transform="translate(285,207)"/>
<path d="M0 0 C1.98 0 3.96 0 6 0 C6 0.99 6 1.98 6 3 C4.02 3 2.04 3 0 3 C0 2.01 0 1.02 0 0 Z " fill="#C6C6C6" transform="translate(273,207)"/>
<path d="M0 0 C1.98 0 3.96 0 6 0 C6 0.99 6 1.98 6 3 C4.02 3 2.04 3 0 3 C0 2.01 0 1.02 0 0 Z " fill="#C6C6C6" transform="translate(261,207)"/>
<path d="M0 0 C1.98 0 3.96 0 6 0 C6 0.99 6 1.98 6 3 C4.02 3 2.04 3 0 3 C0 2.01 0 1.02 0 0 Z " fill="#C6C6C6" transform="translate(249,207)"/>
<path d="M0 0 C1.98 0 3.96 0 6 0 C6 0.99 6 1.98 6 3 C4.02 3 2.04 3 0 3 C0 2.01 0 1.02 0 0 Z " fill="#C6C6C6" transform="translate(237,207)"/>
<path d="M0 0 C1.98 0 3.96 0 6 0 C6 0.99 6 1.98 6 3 C4.02 3 2.04 3 0 3 C0 2.01 0 1.02 0 0 Z " fill="#C6C6C6" transform="translate(225,207)"/>
<path d="M0 0 C1.98 0 3.96 0 6 0 C6 0.99 6 1.98 6 3 C4.02 3 2.04 3 0 3 C0 2.01 0 1.02 0 0 Z " fill="#C6C6C6" transform="translate(213,207)"/>
<path d="M0 0 C1.98 0 3.96 0 6 0 C6 0.99 6 1.98 6 3 C4.02 3 2.04 3 0 3 C0 2.01 0 1.02 0 0 Z " fill="#C6C6C6" transform="translate(201,207)"/>
<path d="M0 0 C1.98 0 3.96 0 6 0 C6 0.99 6 1.98 6 3 C4.02 3 2.04 3 0 3 C0 2.01 0 1.02 0 0 Z " fill="#C6C6C6" transform="translate(189,207)"/>
<path d="M0 0 C1.98 0 3.96 0 6 0 C6 0.99 6 1.98 6 3 C4.02 3 2.04 3 0 3 C0 2.01 0 1.02 0 0 Z " fill="#C6C6C6" transform="translate(177,207)"/>
<path d="M0 0 C1.98 0 3.96 0 6 0 C6 0.99 6 1.98 6 3 C4.02 3 2.04 3 0 3 C0 2.01 0 1.02 0 0 Z " fill="#C6C6C6" transform="translate(165,207)"/>
<path d="M0 0 C1.98 0 3.96 0 6 0 C6 0.99 6 1.98 6 3 C4.02 3 2.04 3 0 3 C0 2.01 0 1.02 0 0 Z " fill="#C6C6C6" transform="translate(153,207)"/>
<path d="M0 0 C1.98 0 3.96 0 6 0 C6 0.99 6 1.98 6 3 C4.02 3 2.04 3 0 3 C0 2.01 0 1.02 0 0 Z " fill="#C6C6C6" transform="translate(141,207)"/>
<path d="M0 0 C1.98 0 3.96 0 6 0 C6 0.99 6 1.98 6 3 C4.02 3 2.04 3 0 3 C0 2.01 0 1.02 0 0 Z " fill="#C6C6C6" transform="translate(129,207)"/>
<path d="M0 0 C1.98 0 3.96 0 6 0 C6 0.99 6 1.98 6 3 C4.02 3 2.04 3 0 3 C0 2.01 0 1.02 0 0 Z " fill="#C6C6C6" transform="translate(117,207)"/>
<path d="M0 0 C1.98 0 3.96 0 6 0 C6 0.99 6 1.98 6 3 C4.02 3 2.04 3 0 3 C0 2.01 0 1.02 0 0 Z " fill="#C6C6C6" transform="translate(105,207)"/>
<path d="M0 0 C1.98 0 3.96 0 6 0 C6 0.99 6 1.98 6 3 C4.02 3 2.04 3 0 3 C0 2.01 0 1.02 0 0 Z " fill="#C6C6C6" transform="translate(93,207)"/>
<path d="M0 0 C1.98 0 3.96 0 6 0 C6 0.99 6 1.98 6 3 C4.02 3 2.04 3 0 3 C0 2.01 0 1.02 0 0 Z " fill="#C6C6C6" transform="translate(81,207)"/>
<path d="M0 0 C1.98 0 3.96 0 6 0 C6 0.99 6 1.98 6 3 C4.02 3 2.04 3 0 3 C0 2.01 0 1.02 0 0 Z " fill="#C6C6C6" transform="translate(69,207)"/>
<path d="M0 0 C1.98 0 3.96 0 6 0 C6 0.99 6 1.98 6 3 C4.02 3 2.04 3 0 3 C0 2.01 0 1.02 0 0 Z " fill="#C6C6C6" transform="translate(57,207)"/>
<path d="M0 0 C1.98 0 3.96 0 6 0 C6 0.99 6 1.98 6 3 C4.02 3 2.04 3 0 3 C0 2.01 0 1.02 0 0 Z " fill="#C6C6C6" transform="translate(45,207)"/>
<path d="M0 0 C1.98 0 3.96 0 6 0 C6 0.99 6 1.98 6 3 C4.02 3 2.04 3 0 3 C0 2.01 0 1.02 0 0 Z " fill="#C6C6C6" transform="translate(33,207)"/>
<path d="M0 0 C1.98 0 3.96 0 6 0 C6 0.99 6 1.98 6 3 C4.02 3 2.04 3 0 3 C0 2.01 0 1.02 0 0 Z " fill="#C6C6C6" transform="translate(21,207)"/>
<path d="M0 0 C1.98 0 3.96 0 6 0 C6 0.99 6 1.98 6 3 C4.02 3 2.04 3 0 3 C0 2.01 0 1.02 0 0 Z " fill="#C6C6C6" transform="translate(9,207)"/>
<path d="M0 0 C0.99 0 1.98 0 3 0 C3 1.98 3 3.96 3 6 C2.01 6 1.02 6 0 6 C0 4.02 0 2.04 0 0 Z " fill="#C9C9C9" transform="translate(357,195)"/>
<path d="M0 0 C0.99 0 1.98 0 3 0 C3 1.98 3 3.96 3 6 C2.01 6 1.02 6 0 6 C0 4.02 0 2.04 0 0 Z " fill="#C9C9C9" transform="translate(0,195)"/>
<path d="M0 0 C0.99 0 1.98 0 3 0 C3 1.98 3 3.96 3 6 C2.01 6 1.02 6 0 6 C0 4.02 0 2.04 0 0 Z " fill="#C9C9C9" transform="translate(357,184)"/>
<path d="M0 0 C0.99 0 1.98 0 3 0 C3 1.98 3 3.96 3 6 C2.01 6 1.02 6 0 6 C0 4.02 0 2.04 0 0 Z " fill="#C9C9C9" transform="translate(0,184)"/>
<path d="M0 0 C0.99 0 1.98 0 3 0 C3 1.98 3 3.96 3 6 C2.01 6 1.02 6 0 6 C0 4.02 0 2.04 0 0 Z " fill="#C8C8C8" transform="translate(357,172)"/>
<path d="M0 0 C0.99 0 1.98 0 3 0 C3 1.98 3 3.96 3 6 C2.01 6 1.02 6 0 6 C0 4.02 0 2.04 0 0 Z " fill="#C8C8C8" transform="translate(0,172)"/>
<path d="M0 0 C0.99 0 1.98 0 3 0 C3 1.98 3 3.96 3 6 C2.01 6 1.02 6 0 6 C0 4.02 0 2.04 0 0 Z " fill="#C9C9C9" transform="translate(357,160)"/>
<path d="M0 0 C0.99 0 1.98 0 3 0 C3 1.98 3 3.96 3 6 C2.01 6 1.02 6 0 6 C0 4.02 0 2.04 0 0 Z " fill="#C9C9C9" transform="translate(0,160)"/>
<path d="M0 0 C0.99 0 1.98 0 3 0 C3 1.98 3 3.96 3 6 C2.01 6 1.02 6 0 6 C0 4.02 0 2.04 0 0 Z " fill="#C9C9C9" transform="translate(357,149)"/>
<path d="M0 0 C0.99 0 1.98 0 3 0 C3 1.98 3 3.96 3 6 C2.01 6 1.02 6 0 6 C0 4.02 0 2.04 0 0 Z " fill="#C9C9C9" transform="translate(0,149)"/>
<path d="M0 0 C0.99 0 1.98 0 3 0 C3 1.98 3 3.96 3 6 C2.01 6 1.02 6 0 6 C0 4.02 0 2.04 0 0 Z " fill="#C8C8C8" transform="translate(357,137)"/>
<path d="M0 0 C0.99 0 1.98 0 3 0 C3 1.98 3 3.96 3 6 C2.01 6 1.02 6 0 6 C0 4.02 0 2.04 0 0 Z " fill="#C8C8C8" transform="translate(0,137)"/>
<path d="M0 0 C0.99 0 1.98 0 3 0 C3 1.98 3 3.96 3 6 C2.01 6 1.02 6 0 6 C0 4.02 0 2.04 0 0 Z " fill="#C9C9C9" transform="translate(357,125)"/>
<path d="M0 0 C0.99 0 1.98 0 3 0 C3 1.98 3 3.96 3 6 C2.01 6 1.02 6 0 6 C0 4.02 0 2.04 0 0 Z " fill="#C9C9C9" transform="translate(0,125)"/>
<path d="M0 0 C0.99 0 1.98 0 3 0 C3 1.98 3 3.96 3 6 C2.01 6 1.02 6 0 6 C0 4.02 0 2.04 0 0 Z " fill="#C9C9C9" transform="translate(357,114)"/>
<path d="M0 0 C0.99 0 1.98 0 3 0 C3 1.98 3 3.96 3 6 C2.01 6 1.02 6 0 6 C0 4.02 0 2.04 0 0 Z " fill="#C9C9C9" transform="translate(0,114)"/>
<path d="M0 0 C0.99 0 1.98 0 3 0 C3 1.98 3 3.96 3 6 C2.01 6 1.02 6 0 6 C0 4.02 0 2.04 0 0 Z " fill="#C8C8C8" transform="translate(357,102)"/>
<path d="M0 0 C0.99 0 1.98 0 3 0 C3 1.98 3 3.96 3 6 C2.01 6 1.02 6 0 6 C0 4.02 0 2.04 0 0 Z " fill="#C8C8C8" transform="translate(0,102)"/>
<path d="M0 0 C0.99 0 1.98 0 3 0 C3 1.98 3 3.96 3 6 C2.01 6 1.02 6 0 6 C0 4.02 0 2.04 0 0 Z " fill="#C9C9C9" transform="translate(357,90)"/>
<path d="M0 0 C0.99 0 1.98 0 3 0 C3 1.98 3 3.96 3 6 C2.01 6 1.02 6 0 6 C0 4.02 0 2.04 0 0 Z " fill="#C9C9C9" transform="translate(0,90)"/>
<path d="M0 0 C0.99 0 1.98 0 3 0 C3 1.98 3 3.96 3 6 C2.01 6 1.02 6 0 6 C0 4.02 0 2.04 0 0 Z " fill="#C9C9C9" transform="translate(357,79)"/>
<path d="M0 0 C0.99 0 1.98 0 3 0 C3 1.98 3 3.96 3 6 C2.01 6 1.02 6 0 6 C0 4.02 0 2.04 0 0 Z " fill="#C9C9C9" transform="translate(0,79)"/>
<path d="M0 0 C0.99 0 1.98 0 3 0 C3 1.98 3 3.96 3 6 C2.01 6 1.02 6 0 6 C0 4.02 0 2.04 0 0 Z " fill="#C8C8C8" transform="translate(357,67)"/>
<path d="M0 0 C0.99 0 1.98 0 3 0 C3 1.98 3 3.96 3 6 C2.01 6 1.02 6 0 6 C0 4.02 0 2.04 0 0 Z " fill="#C8C8C8" transform="translate(0,67)"/>
<path d="M0 0 C0.99 0 1.98 0 3 0 C3 1.98 3 3.96 3 6 C2.01 6 1.02 6 0 6 C0 4.02 0 2.04 0 0 Z " fill="#C9C9C9" transform="translate(357,55)"/>
<path d="M0 0 C0.99 0 1.98 0 3 0 C3 1.98 3 3.96 3 6 C2.01 6 1.02 6 0 6 C0 4.02 0 2.04 0 0 Z " fill="#C9C9C9" transform="translate(0,55)"/>
<path d="M0 0 C0.99 0 1.98 0 3 0 C3 1.98 3 3.96 3 6 C2.01 6 1.02 6 0 6 C0 4.02 0 2.04 0 0 Z " fill="#C9C9C9" transform="translate(357,44)"/>
<path d="M0 0 C0.99 0 1.98 0 3 0 C3 1.98 3 3.96 3 6 C2.01 6 1.02 6 0 6 C0 4.02 0 2.04 0 0 Z " fill="#C9C9C9" transform="translate(0,44)"/>
<path d="M0 0 C0.99 0 1.98 0 3 0 C3 1.98 3 3.96 3 6 C2.01 6 1.02 6 0 6 C0 4.02 0 2.04 0 0 Z " fill="#C8C8C8" transform="translate(357,32)"/>
<path d="M0 0 C0.99 0 1.98 0 3 0 C3 1.98 3 3.96 3 6 C2.01 6 1.02 6 0 6 C0 4.02 0 2.04 0 0 Z " fill="#C8C8C8" transform="translate(0,32)"/>
<path d="M0 0 C0.99 0 1.98 0 3 0 C3 1.98 3 3.96 3 6 C2.01 6 1.02 6 0 6 C0 4.02 0 2.04 0 0 Z " fill="#C9C9C9" transform="translate(357,20)"/>
<path d="M0 0 C0.99 0 1.98 0 3 0 C3 1.98 3 3.96 3 6 C2.01 6 1.02 6 0 6 C0 4.02 0 2.04 0 0 Z " fill="#C9C9C9" transform="translate(0,20)"/>
<path d="M0 0 C0.99 0 1.98 0 3 0 C3 1.98 3 3.96 3 6 C2.01 6 1.02 6 0 6 C0 4.02 0 2.04 0 0 Z " fill="#C9C9C9" transform="translate(357,9)"/>
<path d="M0 0 C0.99 0 1.98 0 3 0 C3 1.98 3 3.96 3 6 C2.01 6 1.02 6 0 6 C0 4.02 0 2.04 0 0 Z " fill="#C9C9C9" transform="translate(0,9)"/>
<path d="M0 0 C1.98 0 3.96 0 6 0 C6 0.99 6 1.98 6 3 C4.02 3 2.04 3 0 3 C0 2.01 0 1.02 0 0 Z " fill="#C6C6C6" transform="translate(345,0)"/>
<path d="M0 0 C1.98 0 3.96 0 6 0 C6 0.99 6 1.98 6 3 C4.02 3 2.04 3 0 3 C0 2.01 0 1.02 0 0 Z " fill="#C6C6C6" transform="translate(333,0)"/>
<path d="M0 0 C1.98 0 3.96 0 6 0 C6 0.99 6 1.98 6 3 C4.02 3 2.04 3 0 3 C0 2.01 0 1.02 0 0 Z " fill="#C6C6C6" transform="translate(321,0)"/>
<path d="M0 0 C1.98 0 3.96 0 6 0 C6 0.99 6 1.98 6 3 C4.02 3 2.04 3 0 3 C0 2.01 0 1.02 0 0 Z " fill="#C6C6C6" transform="translate(309,0)"/>
<path d="M0 0 C1.98 0 3.96 0 6 0 C6 0.99 6 1.98 6 3 C4.02 3 2.04 3 0 3 C0 2.01 0 1.02 0 0 Z " fill="#C6C6C6" transform="translate(297,0)"/>
<path d="M0 0 C1.98 0 3.96 0 6 0 C6 0.99 6 1.98 6 3 C4.02 3 2.04 3 0 3 C0 2.01 0 1.02 0 0 Z " fill="#C6C6C6" transform="translate(285,0)"/>
<path d="M0 0 C1.98 0 3.96 0 6 0 C6 0.99 6 1.98 6 3 C4.02 3 2.04 3 0 3 C0 2.01 0 1.02 0 0 Z " fill="#C6C6C6" transform="translate(273,0)"/>
<path d="M0 0 C1.98 0 3.96 0 6 0 C6 0.99 6 1.98 6 3 C4.02 3 2.04 3 0 3 C0 2.01 0 1.02 0 0 Z " fill="#C6C6C6" transform="translate(261,0)"/>
<path d="M0 0 C1.98 0 3.96 0 6 0 C6 0.99 6 1.98 6 3 C4.02 3 2.04 3 0 3 C0 2.01 0 1.02 0 0 Z " fill="#C6C6C6" transform="translate(249,0)"/>
<path d="M0 0 C1.98 0 3.96 0 6 0 C6 0.99 6 1.98 6 3 C4.02 3 2.04 3 0 3 C0 2.01 0 1.02 0 0 Z " fill="#C6C6C6" transform="translate(237,0)"/>
<path d="M0 0 C1.98 0 3.96 0 6 0 C6 0.99 6 1.98 6 3 C4.02 3 2.04 3 0 3 C0 2.01 0 1.02 0 0 Z " fill="#C6C6C6" transform="translate(225,0)"/>
<path d="M0 0 C1.98 0 3.96 0 6 0 C6 0.99 6 1.98 6 3 C4.02 3 2.04 3 0 3 C0 2.01 0 1.02 0 0 Z " fill="#C6C6C6" transform="translate(213,0)"/>
<path d="M0 0 C1.98 0 3.96 0 6 0 C6 0.99 6 1.98 6 3 C4.02 3 2.04 3 0 3 C0 2.01 0 1.02 0 0 Z " fill="#C6C6C6" transform="translate(201,0)"/>
<path d="M0 0 C1.98 0 3.96 0 6 0 C6 0.99 6 1.98 6 3 C4.02 3 2.04 3 0 3 C0 2.01 0 1.02 0 0 Z " fill="#C6C6C6" transform="translate(189,0)"/>
<path d="M0 0 C1.98 0 3.96 0 6 0 C6 0.99 6 1.98 6 3 C4.02 3 2.04 3 0 3 C0 2.01 0 1.02 0 0 Z " fill="#C6C6C6" transform="translate(177,0)"/>
<path d="M0 0 C1.98 0 3.96 0 6 0 C6 0.99 6 1.98 6 3 C4.02 3 2.04 3 0 3 C0 2.01 0 1.02 0 0 Z " fill="#C6C6C6" transform="translate(165,0)"/>
<path d="M0 0 C1.98 0 3.96 0 6 0 C6 0.99 6 1.98 6 3 C4.02 3 2.04 3 0 3 C0 2.01 0 1.02 0 0 Z " fill="#C6C6C6" transform="translate(153,0)"/>
<path d="M0 0 C1.98 0 3.96 0 6 0 C6 0.99 6 1.98 6 3 C4.02 3 2.04 3 0 3 C0 2.01 0 1.02 0 0 Z " fill="#C6C6C6" transform="translate(141,0)"/>
<path d="M0 0 C1.98 0 3.96 0 6 0 C6 0.99 6 1.98 6 3 C4.02 3 2.04 3 0 3 C0 2.01 0 1.02 0 0 Z " fill="#C6C6C6" transform="translate(129,0)"/>
<path d="M0 0 C1.98 0 3.96 0 6 0 C6 0.99 6 1.98 6 3 C4.02 3 2.04 3 0 3 C0 2.01 0 1.02 0 0 Z " fill="#C6C6C6" transform="translate(117,0)"/>
<path d="M0 0 C1.98 0 3.96 0 6 0 C6 0.99 6 1.98 6 3 C4.02 3 2.04 3 0 3 C0 2.01 0 1.02 0 0 Z " fill="#C6C6C6" transform="translate(105,0)"/>
<path d="M0 0 C1.98 0 3.96 0 6 0 C6 0.99 6 1.98 6 3 C4.02 3 2.04 3 0 3 C0 2.01 0 1.02 0 0 Z " fill="#C6C6C6" transform="translate(93,0)"/>
<path d="M0 0 C1.98 0 3.96 0 6 0 C6 0.99 6 1.98 6 3 C4.02 3 2.04 3 0 3 C0 2.01 0 1.02 0 0 Z " fill="#C6C6C6" transform="translate(81,0)"/>
<path d="M0 0 C1.98 0 3.96 0 6 0 C6 0.99 6 1.98 6 3 C4.02 3 2.04 3 0 3 C0 2.01 0 1.02 0 0 Z " fill="#C6C6C6" transform="translate(69,0)"/>
<path d="M0 0 C1.98 0 3.96 0 6 0 C6 0.99 6 1.98 6 3 C4.02 3 2.04 3 0 3 C0 2.01 0 1.02 0 0 Z " fill="#C6C6C6" transform="translate(57,0)"/>
<path d="M0 0 C1.98 0 3.96 0 6 0 C6 0.99 6 1.98 6 3 C4.02 3 2.04 3 0 3 C0 2.01 0 1.02 0 0 Z " fill="#C6C6C6" transform="translate(45,0)"/>
<path d="M0 0 C1.98 0 3.96 0 6 0 C6 0.99 6 1.98 6 3 C4.02 3 2.04 3 0 3 C0 2.01 0 1.02 0 0 Z " fill="#C6C6C6" transform="translate(33,0)"/>
<path d="M0 0 C1.98 0 3.96 0 6 0 C6 0.99 6 1.98 6 3 C4.02 3 2.04 3 0 3 C0 2.01 0 1.02 0 0 Z " fill="#C6C6C6" transform="translate(21,0)"/>
<path d="M0 0 C1.98 0 3.96 0 6 0 C6 0.99 6 1.98 6 3 C4.02 3 2.04 3 0 3 C0 2.01 0 1.02 0 0 Z " fill="#C6C6C6" transform="translate(9,0)"/>
</svg>
